{"title":"The.Biggest.Loser.Australia.s07e18.PDTV.XviD.BF1.avi","uid":7045656,"size":523255638,"categoryP":"video","categoryS":"tv_shows","magnet":"?xt=urn:btih:a841035d740ab6cdd1f0e7627d620328e198579a&amp;dn=The.Biggest.Loser.Australia.s07e18.PDTV.XviD.BF1.avi&amp;tr=udp%3A%2F%2Ftracker.openbittorrent.com%3A80&amp;tr=udp%3A%2F%2Fopen.demonii.com%3A1337&amp;tr=udp%3A%2F%2Ftracker.coppersurfer.tk%3A6969&amp;tr=udp%3A%2F%2Fexodus.desync.com%3A6969","seeders":1,"leechers":0,"uploader":"bigfish5","files":1,"time":1329737391,"description":"The Biggest Loser Australia Season 7 Episode 18\n\n16 Single people who are overweight and looking for love line up to have their lives changed.\nTonight, the first Friday night special with unseen footage\n\nEnjoy!\n\nGeneral\nComplete name                    : K:\\Torrents\\Aust Biggest Loser\\The.Biggest.Loser.Australia.s07e18.PDTV.XviD.BF1.avi\nFormat                           : AVI\nFormat/Info                      : Audio Video Interleave\nFile size                        : 499 MiB\nDuration                         : 45mn 28s\nOverall bit rate                 : 1 534 Kbps\n\nVideo\nID                               : 0\nFormat                           : MPEG-4 Visual\nFormat profile                   : Advanced Simple@L5\nFormat settings, BVOP            : 2\nFormat settings, QPel            : No\nFormat settings, GMC             : No warppoints\nFormat settings, Matrix          : Default (H.263)\nCodec ID                         : XVID\nCodec ID/Hint                    : XviD\nDuration                         : 45mn 28s\nBit rate                         : 1 296 Kbps\nWidth                            : 640 pixels\nHeight                           : 352 pixels\nDisplay aspect ratio             : 16:9\nFrame rate                       : 25.000 fps\nColor space                      : YUV\nChroma subsampling               : 4:2:0\nBit depth                        : 8 bits\nScan type                        : Progressive\nCompression mode                 : Lossy\nBits/(Pixel*Frame)               : 0.230\nStream size                      : 421 MiB (84%)\nWriting library                  : XviD 1.2.1 (UTC 2008-12-04)\n\nAudio\nID                               : 1\nFormat                           : MPEG Audio\nFormat version                   : Version 1\nFormat profile                   : Layer 3\nMode                             : Joint stereo\nMode extension                   : MS Stereo\nCodec ID                         : 55\nCodec ID/Hint                    : MP3\nDuration                         : 45mn 27s\nBit rate mode                    : Variable\nBit rate                         : 226 Kbps\nMinimum bit rate                 : 32.0 Kbps\nChannel(s)                       : 2 channels\nSampling rate                    : 48.0 KHz\nCompression mode                 : Lossy\nStream size                      : 73.4 MiB (15%)\n","torrent":{"xt":"urn:btih:a841035d740ab6cdd1f0e7627d620328e198579a","amp;dn":"The.Biggest.Loser.Australia.s07e18.PDTV.XviD.BF1.avi","amp;tr":["udp%3A%2F%2Ftracker.openbittorrent.com%3A80","udp%3A%2F%2Fopen.demonii.com%3A1337","udp%3A%2F%2Ftracker.coppersurfer.tk%3A6969","udp%3A%2F%2Fexodus.desync.com%3A6969"],"infoHash":"a841035d740ab6cdd1f0e7627d620328e198579a","infoHashBuffer":{"type":"Buffer","data":[168,65,3,93,116,10,182,205,209,240,231,98,125,98,3,40,225,152,87,154]},"announce":[],"urlList":[]}}